<?xml version="1.0" encoding="UTF-8" standalone="no"?>
<svg
   xmlns:dc="http://purl.org/dc/elements/1.1/"
   xmlns:cc="http://creativecommons.org/ns#"
   xmlns:rdf="http://www.w3.org/1999/02/22-rdf-syntax-ns#"
   xmlns:svg="http://www.w3.org/2000/svg"
   xmlns="http://www.w3.org/2000/svg"
   xmlns:sodipodi="http://sodipodi.sourceforge.net/DTD/sodipodi-0.dtd"
   xmlns:inkscape="http://www.inkscape.org/namespaces/inkscape"
   version="1.0"
   width="53.249336pt"
   height="70.902908pt"
   viewBox="0 0 53.249336 70.902908"
   preserveAspectRatio="xMidYMid meet"
   id="svg10"
   sodipodi:docname="rentalhoop.svg"
   inkscape:version="1.0.1 (3bc2e813f5, 2020-09-07)">
  <defs
     id="defs14" />
  <sodipodi:namedview
     pagecolor="#ffffff"
     bordercolor="#666666"
     borderopacity="1"
     objecttolerance="10"
     gridtolerance="10"
     guidetolerance="10"
     inkscape:pageopacity="0"
     inkscape:pageshadow="2"
     inkscape:window-width="1366"
     inkscape:window-height="705"
     id="namedview12"
     showgrid="false"
     inkscape:zoom="0.50383782"
     inkscape:cx="-7.210186"
     inkscape:cy="-125.59223"
     inkscape:window-x="-8"
     inkscape:window-y="-8"
     inkscape:window-maximized="1"
     inkscape:current-layer="svg10" />
  <metadata
     id="metadata2">
Created by potrace 1.16, written by Peter Selinger 2001-2019
<rdf:RDF>
  <cc:Work
     rdf:about="">
    <dc:format>image/svg+xml</dc:format>
    <dc:type
       rdf:resource="http://purl.org/dc/dcmitype/StillImage" />
  </cc:Work>
</rdf:RDF>
</metadata>
  <g
     transform="matrix(0.1,0,0,-0.1,-207.45382,297.90291)"
     fill="#000000"
     stroke="none"
     id="g8">
    <path
       d="m 2254,2964 c -23,-8 -60,-31 -83,-51 -96,-81 -123,-210 -69,-326 49,-105 209,-317 239,-317 23,0 148,157 205,257 56,99 71,164 55,237 -13,61 -33,92 -49,82 -9,-5 -8,-15 3,-36 25,-48 29,-111 11,-172 -18,-64 -111,-210 -179,-283 l -47,-50 -46,50 c -67,73 -152,206 -176,272 -45,129 16,259 146,308 53,20 125,17 174,-8 30,-14 50,-8 38,12 -10,16 -98,41 -140,40 -23,0 -60,-7 -82,-15 z"
       id="path4" />
    <path
       d="m 2255,2779 c -38,-33 -71,-66 -73,-74 -4,-18 10,-19 26,-3 9,9 12,-4 12,-60 v -72 h 120 120 v 72 c 0,56 3,69 12,60 16,-16 28,-15 28,1 0,16 -143,137 -161,136 -8,0 -45,-27 -84,-60 z m 131,-5 44,-36 v -75 -74 l -37,3 c -35,3 -38,6 -41,36 -2,17 -7,32 -12,32 -5,0 -10,-15 -12,-32 -3,-30 -6,-33 -40,-36 l -38,-3 v 73 73 l 42,37 c 24,21 44,38 46,38 2,0 24,-16 48,-36 z"
       id="path6" />
  </g>
</svg>
